PathFileType	4	(X/Y/Z)	C:\Users\Basilio\Documents\Thesis Gigler\squatting_fais\c3dfiles\077\SLS_back_pre4\markers_experimental.trc
DataRate	CameraRate	NumFrames	NumMarkers	Units	OrigDataRate	OrigDataStartFrame	OrigNumFrames
200.000000	200.000000	4	60	mm	200.000000	350	1402
Frame#	Time	FHD			LBHD			RBHD			C7			T10			CLAV			LSHO			LUUPA			LMUPA			LDUPA			LLEP			LMEP			LRAD			LUL			LRFIN			RSHO			RUPA1			RMUPA			RDUPA			RLEP			RMEP			RRAD			RUL			RUFIN			LASI			RASI			USACR			LSACR			RSACR			LTHI1			LTHI2			LTHI3			LTHI4			LLFC			LMFC			LTIB1			LTIB2			LTIB3			LTIB4			LLMAL			LHEE			LMT1			LMT2			LMT5			RTHI			RTHI2			RTHI3			RTHI4			RLFC			RMFC			RTIB1			RTIB2			RTIB3			RTIB4			RLMAL			RMMAL			RHEE			RMT1			RMT2			RMT5			
		X1	Y1	Z1	X2	Y2	Z2	X3	Y3	Z3	X4	Y4	Z4	X5	Y5	Z5	X6	Y6	Z6	X7	Y7	Z7	X8	Y8	Z8	X9	Y9	Z9	X10	Y10	Z10	X11	Y11	Z11	X12	Y12	Z12	X13	Y13	Z13	X14	Y14	Z14	X15	Y15	Z15	X16	Y16	Z16	X17	Y17	Z17	X18	Y18	Z18	X19	Y19	Z19	X20	Y20	Z20	X21	Y21	Z21	X22	Y22	Z22	X23	Y23	Z23	X24	Y24	Z24	X25	Y25	Z25	X26	Y26	Z26	X27	Y27	Z27	X28	Y28	Z28	X29	Y29	Z29	X30	Y30	Z30	X31	Y31	Z31	X32	Y32	Z32	X33	Y33	Z33	X34	Y34	Z34	X35	Y35	Z35	X36	Y36	Z36	X37	Y37	Z37	X38	Y38	Z38	X39	Y39	Z39	X40	Y40	Z40	X41	Y41	Z41	X42	Y42	Z42	X43	Y43	Z43	X44	Y44	Z44	X45	Y45	Z45	X46	Y46	Z46	X47	Y47	Z47	X48	Y48	Z48	X49	Y49	Z49	X50	Y50	Z50	X51	Y51	Z51	X52	Y52	Z52	X53	Y53	Z53	X54	Y54	Z54	X55	Y55	Z55	X56	Y56	Z56	X57	Y57	Z57	X58	Y58	Z58	X59	Y59	Z59	X60	Y60	Z60	

351	1.75	-270.0763244628907	1852.0048828125	-1025.944702148438	-416.9554443359376	1748.670532226563	-1089.561889648438	-415.1254272460939	1742.224487304688	-943.4353027343752	-459.5913696289064	1593.024536132813	-1029.016845703125	-430.5603332519532	1256.151245117188	-1013.337646484375	-290.4594116210938	1559.831420898438	-1032.116333007813	-343.9451599121094	1599.539184570313	-1200.421142578125	-186.9037322998047	1557.712036132813	-1325.789428710938	-158.0341796875	1593.947021484375	-1306.404663085938	-120.5504608154297	1561.2880859375	-1342.293823242188	-57.15908432006837	1577.042846679688	-1347.760375976563	-41.92167663574219	1510.727783203125	-1318.743530273438	245.5218811035157	1637.335815429688	-1272.09521484375	237.3397521972657	1638.826416015625	-1351.452392578125	337.6040039062501	1672.763793945313	-1294.728515625	-327.9595642089844	1597.449829101563	-867.385437011719	-175.4365234375	1570.037719726563	-750.5563354492189	-149.2245635986328	1601.123779296875	-780.4065551757815	-105.9201889038086	1576.985229492188	-744.2425537109376	-40.64488601684571	1589.0361328125	-750.6315917968751	-28.91608238220216	1517.404663085938	-779.6866455078127	244.2511291503907	1637.833374023438	-848.6442871093752	251.9925384521485	1647.552978515625	-765.4386596679689	333.4577941894532	1670.449951171875	-845.4609375000002	-228.7606201171876	1065.901000976563	-1152.645751953125	-222.2261962890626	1103.530029296875	-870.101013183594	-430.2935791015626	1152.726440429688	-1006.442626953125	-434.6132812500001	1121.778686523438	-1034.262451171875	-435.3037719726564	1120.286743164063	-978.6251220703127	-296.0462341308594	851.2664794921877	-1189.48193359375	-267.9676818847657	771.916442871094	-1183.57177734375	-218.7555847167969	773.6423339843752	-1183.203369140625	-296.8173828125001	721.3657226562501	-1165.401245117188	-269.8398132324219	573.7768554687501	-1138.458374023438	-253.5586853027344	555.8275756835939	-1005.5263671875	-251.7960662841797	350.8369140625001	-1058.352661132813	-286.6446533203126	304.4130249023438	-1126.807250976563	-255.5272521972657	301.2957458496094	-1092.043579101563	-270.4008483886719	226.2375793457032	-1056.898803710938	-339.6094055175782	110.3448715209961	-1095.575073242188	-397.1119689941407	80.97842407226564	-1043.52197265625	-187.6216888427735	55.30380249023439	-1022.034301757813	-182.7516326904297	57.9623489379883	-1064.545288085938	-311.1576843261719	124.8663940429688	-1011.354370117188	-116.0981063842774	827.7993774414065	-776.1254882812502	-50.72716903686525	807.2447509765627	-777.0115966796877	-25.08186721801759	827.2518310546877	-787.5278320312502	-30.32431602478028	725.8232421875001	-782.2351074218752	-22.00112533569336	680.0972900390626	-781.6779785156252	-1.027471899986267	650.9809570312501	-904.1985473632815	-66.05442810058595	548.5302734375001	-795.9086914062502	-169.2749328613282	536.5781860351564	-768.4509277343752	-140.3071899414063	503.5378723144532	-785.982849121094	-166.2115478515625	469.1739807128907	-828.503845214844	-342.0396423339844	389.7440490722657	-791.2710571289065	-312.2338256835938	372.8111267089844	-876.7482910156252	-413.0776367187501	400.1947326660157	-849.9892578125002	-253.5038604736329	242.2609863281251	-833.5293579101565	-256.6160278320313	245.4797821044922	-794.1251220703127	-286.6296386718751	242.3054199218751	-749.3271484375001	
352	1.755	-270.1724548339844	1851.990112304688	-1026.727905273438	-416.818084716797	1748.41162109375	-1090.2275390625	-414.8322753906251	1742.266845703125	-943.6538696289065	-459.7224121093751	1592.890502929688	-1029.728759765625	-430.361541748047	1256.042846679688	-1013.99267578125	-290.4291076660157	1559.787963867188	-1032.783203125	-343.8329467773438	1599.413452148438	-1201.146728515625	-186.5304870605469	1557.062377929688	-1325.99560546875	-157.9204254150391	1593.942626953125	-1307.154663085938	-120.3562240600586	1560.6767578125	-1342.869262695313	-57.28104400634767	1576.87646484375	-1348.55078125	-41.81255722045899	1510.509887695313	-1319.40185546875	245.6331329345704	1637.254638671875	-1272.686645507813	237.4951934814454	1638.60107421875	-1352.251953125	337.7160644531251	1671.693237304688	-1295.548583984375	-328.0253906250001	1597.429321289063	-868.0964965820315	-175.4895324707032	1570.329345703125	-751.1832885742189	-149.3125762939453	1601.243408203125	-781.0225219726565	-105.9712295532227	1577.05810546875	-744.7731933593751	-40.76076889038087	1589.039306640625	-751.5690917968751	-28.95545196533204	1517.5224609375	-780.1433715820315	244.2799987792969	1637.733154296875	-849.3265380859377	251.9830169677735	1647.422973632813	-766.0140991210939	333.4883117675782	1670.197265625	-846.1560668945315	-228.6757507324219	1065.805541992188	-1153.373779296875	-222.0481719970704	1103.58984375	-870.9025878906252	-430.130340576172	1152.87939453125	-1007.081665039063	-434.4931030273439	1121.830322265625	-1034.726928710938	-435.0907592773439	1120.343994140625	-979.1519165039065	-296.6318359375001	851.2651977539065	-1190.062255859375	-269.2582397460938	772.3843383789065	-1184.593505859375	-219.1118621826172	773.4184570312502	-1183.89013671875	-296.9772033691407	721.2623291015626	-1165.932373046875	-271.1044921875001	573.8261718750001	-1139.447143554688	-253.1682128906251	555.7899169921876	-1006.2822265625	-251.6121215820313	350.2127990722657	-1059.192626953125	-287.0073242187501	304.4350280761719	-1127.440673828125	-255.6681365966797	301.1871643066407	-1092.739013671875	-270.3074645996094	226.0355682373047	-1057.68896484375	-339.7384643554688	110.2545776367188	-1095.829467773438	-397.0964965820314	80.94448089599611	-1043.635986328125	-187.6316528320313	55.40847396850587	-1022.308532714844	-182.8202667236328	57.7524871826172	-1064.720092773438	-311.0361633300782	125.0452575683594	-1011.671447753906	-114.6335144042969	828.8272705078127	-776.9322509765627	-48.93279266357423	809.0054931640627	-777.9201660156252	-23.61527252197266	828.9257812500002	-788.5610351562502	-28.12008857727051	727.5885009765626	-782.972595214844	-19.87837028503418	681.9776611328126	-782.550231933594	0.9358745217323305	653.0891723632814	-905.2677001953127	-65.32834625244142	550.9512939453126	-797.526306152344	-168.675521850586	540.6434936523439	-769.9439697265627	-140.0442657470703	507.2828979492189	-787.5142822265627	-166.332015991211	472.8747863769532	-830.0557861328127	-342.9718322753907	395.8372802734376	-792.983825683594	-313.9742736816407	378.6732177734376	-878.7570800781252	-413.9974670410157	406.928924560547	-851.5130615234377	-255.9432067871094	246.7519683837891	-835.4487304687502	-258.7133178710938	250.6839294433594	-795.9954223632815	-289.1226806640626	247.8083190917969	-751.4415283203126	
353	1.76	-270.2053833007813	1852.050659179688	-1027.424682617188	-417.1285095214845	1748.660766601563	-1091.14599609375	-415.0017395019532	1742.772216796875	-944.4270629882815	-459.7117004394532	1592.812377929688	-1030.488037109375	-430.3575439453126	1255.78564453125	-1014.556030273438	-290.3829345703126	1559.71142578125	-1033.443969726563	-343.7475891113282	1599.423950195313	-1201.821044921875	-186.8672485351563	1557.50732421875	-1327.301513671875	-157.7367401123047	1593.683471679688	-1307.7626953125	-120.5050735473633	1560.969482421875	-1343.592651367188	-57.09669494628908	1576.779907226563	-1349.2392578125	-41.68058395385743	1510.3935546875	-1320.13525390625	245.6109771728516	1637.299682617188	-1273.4931640625	237.3466033935547	1638.504150390625	-1352.919189453125	337.7614746093751	1671.79736328125	-1296.160400390625	-328.0451049804688	1597.439453125	-868.8182373046877	-175.6401672363282	1569.973754882813	-751.9889526367189	-149.6294097900391	1601.3193359375	-781.763854980469	-106.008544921875	1577.211547851563	-745.3486938476564	-40.79398727416993	1589.228515625	-751.5648193359376	-29.05993461608887	1517.452392578125	-780.593933105469	244.1277160644532	1637.544799804688	-849.588073730469	251.9561614990235	1647.395385742188	-766.5760498046876	333.5186462402344	1669.994995117188	-846.8010864257815	-228.5351715087891	1065.89453125	-1154.0595703125	-221.9044494628907	1103.739013671875	-871.6064453125002	-430.0416259765626	1152.841674804688	-1007.665161132813	-434.3347473144532	1121.8291015625	-1035.239013671875	-434.8445739746095	1120.506591796875	-979.6328125000002	-296.8897399902344	851.0800781250002	-1190.669189453125	-269.6101074218751	772.4971923828127	-1185.209106445313	-220.4142608642579	773.0950317382815	-1184.13671875	-297.4495239257813	721.5200195312501	-1166.57080078125	-271.5083312988282	573.9828491210939	-1140.017700195313	-252.7675323486329	555.5274047851564	-1007.063293457031	-251.4376983642579	350.5145568847657	-1059.956909179688	-287.5939941406251	304.5640258789063	-1128.008056640625	-255.7548522949219	301.1589660644532	-1093.586181640625	-270.2421569824219	225.8859405517579	-1058.320190429688	-339.9056396484376	110.2338256835938	-1096.115112304688	-397.0554809570314	80.93788909912111	-1043.735107421875	-187.5583953857422	55.67576599121095	-1022.512023925781	-182.7239227294922	57.71842193603517	-1064.973266601563	-310.8924255371094	125.192253112793	-1012.039489746094	-113.0839538574219	830.0022583007815	-777.6001586914065	-47.3590431213379	810.457702636719	-778.919372558594	-22.04696655273438	830.7439575195315	-789.7468872070315	-26.05212593078614	729.2531127929689	-783.9121093750002	-18.03768348693848	683.9786987304689	-783.506774902344	2.682220935821534	655.0186767578126	-906.5321044921877	-64.59188079833986	553.5089111328126	-798.767272949219	-168.2059326171875	544.0291137695314	-771.4257812500002	-139.8546142578125	510.419403076172	-789.1635742187502	-166.4138336181641	476.6500244140626	-831.468444824219	-344.0726013183594	401.4690856933595	-794.7481079101565	-315.4493713378907	384.3638000488282	-880.666198730469	-415.1686096191407	413.4167785644532	-853.195739746094	-259.1488952636719	251.8657531738282	-838.1240844726565	-262.1889038085938	254.8371124267579	-799.0681762695315	-291.4579772949219	252.9639282226563	-753.5222167968751	
354	1.765	-270.0236206054688	1851.898071289063	-1028.229858398438	-417.1586914062501	1748.639892578125	-1091.8564453125	-414.9881286621095	1743.156860351563	-945.3044433593752	-459.6884155273439	1592.892456054688	-1031.217895507813	-430.3313598632814	1255.6748046875	-1015.235107421875	-290.3533325195313	1559.77978515625	-1034.114624023438	-343.6140441894532	1599.438110351563	-1202.672729492188	-186.9230041503907	1557.534423828125	-1327.82373046875	-157.963363647461	1593.6923828125	-1308.426025390625	-120.283203125	1560.889892578125	-1344.48681640625	-57.1505813598633	1576.777465820313	-1350.0166015625	-41.70153808593751	1510.33740234375	-1320.888793945313	245.6309967041016	1637.200439453125	-1274.192993164063	237.2950286865235	1638.547607421875	-1353.4638671875	337.8623352050782	1671.726440429688	-1296.966674804688	-328.1990966796876	1597.676147460938	-869.4683227539065	-175.7243804931641	1570.165771484375	-752.4794311523439	-149.7408447265625	1601.205200195313	-782.4287719726565	-106.0716934204102	1577.291137695313	-745.9257812500001	-40.80344390869141	1589.321166992188	-752.0138549804689	-29.13207244873048	1517.534790039063	-781.0449218750002	244.2428588867188	1637.600463867188	-850.5901489257815	251.9139862060547	1647.37890625	-767.1370849609376	333.5849609375001	1669.945190429688	-847.3891601562502	-228.5509643554688	1065.935424804688	-1154.60107421875	-221.7244415283204	1103.786987304688	-872.465759277344	-429.9453430175782	1152.930053710938	-1008.164123535156	-434.172332763672	1121.823364257813	-1035.760131835938	-434.7071533203126	1120.514892578125	-980.0816040039065	-297.2872924804688	851.1533203125002	-1191.2919921875	-270.0707397460938	772.4434204101565	-1185.932861328125	-220.6918182373047	773.459167480469	-1185.13232421875	-297.6353759765626	721.4562988281251	-1167.06103515625	-270.9747009277344	573.6248779296876	-1140.426147460938	-252.4349365234376	555.6216430664064	-1007.748962402344	-252.2870635986329	349.5674438476563	-1061.244140625	-287.8551025390626	304.6159362792969	-1128.565795898438	-256.0203857421876	301.1605224609376	-1094.532104492188	-269.6884155273438	225.6558685302735	-1058.569091796875	-340.0388488769532	110.1068725585938	-1096.3525390625	-397.0281677246095	80.94500732421876	-1043.843017578125	-187.5357360839844	55.8749465942383	-1022.751342773438	-182.7713928222657	57.56204223632814	-1065.066040039063	-310.6636047363282	125.3141326904297	-1012.418701171875	-111.536849975586	831.178405761719	-778.2633056640627	-45.71037292480469	811.9710083007815	-779.7290649414065	-20.55995750427246	832.060485839844	-790.456726074219	-23.83276557922364	731.1312255859376	-784.7232666015627	-16.04065895080567	685.9250488281251	-784.5621337890627	4.789216041564942	656.7219238281251	-907.4915771484377	-64.06623840332033	556.2133178710939	-800.0740966796877	-167.8827209472657	547.8342285156251	-772.4552001953127	-139.6883697509766	514.1816406250001	-790.4792480468752	-166.6006317138672	480.313934326172	-832.924987792969	-345.0607910156251	407.2669372558595	-796.3755493164065	-316.4844970703126	390.1284484863282	-882.216735839844	-416.2577209472657	419.9604797363282	-854.8096313476565	-261.3858032226563	256.9792480468751	-840.0232543945315	-263.8302612304688	260.6215209960938	-800.671325683594	-293.7124328613282	258.0327453613282	-755.5700073242189	
